<svg viewBox="0 0 280 280" fill="none" xmlns="http://www.w3.org/2000/svg">
<path d="M154.087 43.1703C154.087 50.8066 147.874 57.0032 140.202 57.0032C132.529 57.0032 126.316 50.8066 126.316 43.1703C126.316 35.5339 132.529 29.3373 140.202 29.3373C147.874 29.3373 154.087 35.5339 154.087 43.1703Z" fill="white" stroke="black" stroke-width="2"/>
<rect x="127.827" y="54.687" width="24.3452" height="1.72413" rx="0.862067" fill="white" stroke="black" stroke-width="1.72413"/>
<path d="M102.394 202.461V198.459C111.907 187.541 117.666 173.285 117.666 157.69C117.666 144.96 113.828 133.121 107.242 123.262H172.758C166.172 133.121 162.334 144.96 162.334 157.69C162.334 173.285 168.093 187.541 177.606 198.459V202.461H102.394Z" fill="white" stroke="black" stroke-width="2"/>
<path fill-rule="evenodd" clip-rule="evenodd" d="M140 55.549H132.592L101.615 99.9266C98.9058 104.543 97.1141 115.473 111.62 122.262H140H168.381C182.886 115.473 181.094 104.543 178.385 99.9266L147.408 55.549H140Z" fill="white"/>
<path d="M132.592 55.549V54.549H132.071L131.772 54.9766L132.592 55.549ZM101.615 99.9266L100.795 99.3542L100.772 99.3865L100.752 99.4205L101.615 99.9266ZM111.62 122.262L111.196 123.167L111.397 123.262H111.62V122.262ZM168.381 122.262V123.262H168.603L168.804 123.167L168.381 122.262ZM178.385 99.9266L179.248 99.4205L179.228 99.3865L179.205 99.3542L178.385 99.9266ZM147.408 55.549L148.228 54.9766L147.929 54.549H147.408V55.549ZM132.592 56.549H140V54.549H132.592V56.549ZM102.435 100.499L133.412 56.1214L131.772 54.9766L100.795 99.3542L102.435 100.499ZM112.043 121.356C105.007 118.063 102.073 113.849 101.133 110.04C100.18 106.182 101.228 102.561 102.477 100.433L100.752 99.4205C99.2923 101.909 98.0903 106.061 99.1909 110.519C100.304 115.027 103.726 119.672 111.196 123.167L112.043 121.356ZM140 121.262H111.62V123.262H140V121.262ZM140 123.262H168.381V121.262H140V123.262ZM168.804 123.167C176.274 119.672 179.696 115.027 180.809 110.519C181.91 106.061 180.708 101.909 179.248 99.4205L177.523 100.433C178.772 102.561 179.82 106.182 178.867 110.04C177.927 113.849 174.993 118.063 167.957 121.356L168.804 123.167ZM179.205 99.3542L148.228 54.9766L146.588 56.1214L177.565 100.499L179.205 99.3542ZM147.408 54.549H140V56.549H147.408V54.549Z" fill="black"/>
<rect x="98.7357" y="123.262" width="82.5286" height="9.18089" rx="4.59044" fill="white" stroke="black" stroke-width="2"/>
<rect x="91.3273" y="204.461" width="97.3452" height="12.9063" fill="white" stroke="black" stroke-width="2"/>
<rect x="78.296" y="219.368" width="123.408" height="13.6511" fill="white" stroke="black" stroke-width="2"/>
<rect x="69.9889" y="235.019" width="140.022" height="13.6511" fill="white" stroke="black" stroke-width="2"/>
</svg>
