<svg viewBox="0 0 280 280" fill="none" xmlns="http://www.w3.org/2000/svg">
<path d="M100.378 103.342C101.642 103.873 104.171 105.334 104.171 106.928C104.171 108.521 98.1015 153.538 95.0667 175.847C94.5609 177.308 93.094 180.349 91.2731 180.827C89.4522 181.305 122.886 181.026 139.831 180.827C156.775 181.026 190.209 181.305 188.389 180.827C186.568 180.349 185.101 177.308 184.595 175.847C181.56 153.538 175.49 108.521 175.49 106.928C175.49 105.334 178.019 103.873 179.284 103.342H139.831H100.378Z" fill="white" stroke="black" stroke-width="2"/>
<rect x="85.6345" y="93.1213" width="108.393" height="9.22081" rx="4.61041" fill="white" stroke="black" stroke-width="2"/>
<rect x="91.1581" y="174.611" width="97.3452" height="12.9595" fill="white" stroke="black" stroke-width="2"/>
<rect x="78.1268" y="189.571" width="123.408" height="13.707" fill="white" stroke="black" stroke-width="2"/>
<rect x="69.8197" y="205.278" width="140.022" height="13.707" fill="white" stroke="black" stroke-width="2"/>
<path d="M193.938 58.5413L191.408 93.616L177.198 92.485H89.0266L84.0143 58.7656H109.532L110.899 84.3589H127.455V58.7656H151.757V84.3589H177.198L176.962 58.8144L193.938 58.5413Z" fill="#F1F1F1"/>
<path d="M188.862 78.7708L190.073 58.8132H193.758L192.441 78.7708H192.467L192.091 84.0718L191.915 86.7434H191.902L191.409 93.7054H88.2171L83.8551 58.8981H103.126L104.691 78.7708H116.013L114.327 58.8981H140.823V78.7708H157.083V58.8981H180.81V78.7708H188.862Z" fill="white" stroke="black" stroke-width="2"/>
</svg>
