<svg viewBox="0 0 281 280" fill="none" xmlns="http://www.w3.org/2000/svg">
<path d="M189.93 90.2523C189.93 98.6989 184.527 109.381 175.592 117.993C166.683 126.579 154.42 132.951 140.93 132.951C127.441 132.951 115.178 126.579 106.269 117.993C97.334 109.381 91.9304 98.6989 91.9304 90.2523C91.9304 81.8967 97.2372 74.1905 106.113 68.524C114.978 62.8649 127.285 59.3319 140.93 59.3319C154.576 59.3319 166.883 62.8649 175.748 68.524C184.624 74.1905 189.93 81.8967 189.93 90.2523Z" fill="white" stroke="black" stroke-width="2"/>
<path d="M137.111 43.4327H138.111V42.4327V30.4065H143.095V42.4327V43.4327H144.095H156.121V48.4159H144.095H143.095V49.4159V61.4423H138.111V49.4159V48.4159H137.111H125.085V43.4327H137.111Z" fill="white" stroke="black" stroke-width="2"/>
<rect x="99.3388" y="118.634" width="82.5286" height="3.36703" rx="1.68352" fill="white" stroke="black" stroke-width="2"/>
<path d="M102.997 203.22V199.197C112.51 188.241 118.269 173.934 118.269 158.286C118.269 145.508 114.429 133.625 107.842 123.73H173.364C166.777 133.625 162.937 145.508 162.937 158.286C162.937 173.934 168.696 188.241 178.209 199.197V203.22H102.997Z" fill="white" stroke="black" stroke-width="2"/>
<rect x="99.3388" y="123.73" width="82.5286" height="9.22081" rx="4.61041" fill="white" stroke="black" stroke-width="2"/>
<rect x="91.9304" y="205.22" width="97.3452" height="12.9595" fill="white" stroke="black" stroke-width="2"/>
<rect x="78.8991" y="220.18" width="123.408" height="13.707" fill="white" stroke="black" stroke-width="2"/>
<rect x="70.592" y="235.886" width="140.022" height="13.707" fill="white" stroke="black" stroke-width="2"/>
<circle cx="140.892" cy="45.7923" r="6.73348" fill="white" stroke="black" stroke-width="2"/>
</svg>
