<svg viewBox="0 0 280 280" fill="none" xmlns="http://www.w3.org/2000/svg">
<path d="M168.748 81.1788C168.748 95.2127 155.985 106.775 140 106.775C124.015 106.775 111.252 95.2127 111.252 81.1788C111.252 67.145 124.015 55.583 140 55.583C155.985 55.583 168.748 67.145 168.748 81.1788Z" fill="white" stroke="black" stroke-width="2"/>
<path d="M102.394 177.044V173.021C111.907 162.064 117.666 147.758 117.666 132.109C117.666 119.332 113.826 107.449 107.239 97.5538H172.761C166.174 107.449 162.334 119.332 162.334 132.109C162.334 147.758 168.093 162.064 177.606 173.021V177.044H102.394Z" fill="white" stroke="black" stroke-width="2"/>
<rect x="98.7357" y="97.5538" width="82.5286" height="9.22081" rx="4.61041" fill="white" stroke="black" stroke-width="2"/>
<rect x="91.3273" y="179.044" width="97.3452" height="12.9595" fill="white" stroke="black" stroke-width="2"/>
<rect x="78.296" y="194.003" width="123.408" height="13.707" fill="white" stroke="black" stroke-width="2"/>
<rect x="69.9889" y="209.71" width="140.022" height="13.707" fill="white" stroke="black" stroke-width="2"/>
</svg>
